<svg width="164" height="54" viewBox="0 0 164 54" fill="none" xmlns="http://www.w3.org/2000/svg">
<path d="M74 34.125V19.5H77.5V35.45L74.6 37.125H69.275L66.375 35.45V30.625H69.875V34.125H74ZM95.123 35.45L92.223 37.125H86.898L83.998 35.45V26.05L86.898 24.375H92.223L95.123 26.05V35.45ZM87.423 27.3V34.2H91.698V27.3H87.423ZM106.566 24.375H109.841L112.741 26.05V35.45L109.841 37.125H106.566L104.791 36.1L103.016 37.125H101.366V18.75H104.791V25.4L106.566 24.375ZM104.791 27.3V34.2H109.316V27.3H104.791ZM122.428 24.5V37H119.003V24.5H122.428ZM118.878 22.175V18.75H122.553V22.175H118.878ZM127.681 27.425V24.5H129.981V20.425L132.881 18.75H136.156V21.675H133.406V24.5H136.156V27.425H133.406V37H129.981V27.425H127.681ZM142.385 42L144.685 36.125L139.91 24.5H143.335L146.41 31.85H146.46L149.36 24.5H152.785L145.76 42H142.385Z" fill="#2563EB"/>
<rect y="4" width="50" height="50" rx="10" fill="#2563EB"/>
<path d="M26.8 37.4V14H32.4V39.52L27.76 42.2H19.24L14.6 39.52V31.8H20.2V37.4H26.8Z" fill="white"/>
</svg>
